<svg xmlns="http://www.w3.org/2000/svg" width="1080" height="620" viewBox="0 0 1080 620" role="img" aria-labelledby="title desc">
  <title id="title">Row-1 arranging: the row-2 case by offset</title>
  <desc id="desc">Three alternative starting offsets when the missing ball is already in row 2: just right of a duplicate, just left, or any other offset that reduces to the row-3 case.</desc>
  <defs>
    <style>
      .title { font: 700 28px system-ui, sans-serif; fill: #172033; }
      .heading { font: 700 18px system-ui, sans-serif; fill: #172033; text-anchor: middle; }
      .note { font: 14px system-ui, sans-serif; fill: #58657d; text-anchor: middle; }
      .column { font: 700 13px system-ui, sans-serif; fill: #58657d; text-anchor: middle; }
      .move { stroke: #dc7a24; stroke-width: 3; fill: none; marker-end: url(#movearrow); }
    </style>
    <marker id="movearrow" markerWidth="8" markerHeight="8" refX="7" refY="4" orient="auto"><path d="M0 0 L8 4 L0 8 Z" fill="#dc7a24"/></marker>
    <g id="board">
      <g fill="#f0f3f8" stroke="#a9b4c7" stroke-width="2">
        <circle cx="20" cy="20" r="14"/><circle cx="100" cy="20" r="14"/><circle cx="180" cy="20" r="14"/>
        <circle cx="20" cy="65" r="14"/><circle cx="60" cy="65" r="14"/><circle cx="100" cy="65" r="14"/><circle cx="140" cy="65" r="14"/><circle cx="180" cy="65" r="14"/>
        <circle cx="20" cy="105" r="14"/><circle cx="60" cy="105" r="14"/><circle cx="100" cy="105" r="14"/><circle cx="140" cy="105" r="14"/><circle cx="180" cy="105" r="14"/>
        <circle cx="20" cy="145" r="14"/><circle cx="60" cy="145" r="14"/><circle cx="100" cy="145" r="14"/><circle cx="140" cy="145" r="14"/><circle cx="180" cy="145" r="14"/>
        <circle cx="20" cy="185" r="14"/><circle cx="60" cy="185" r="14"/><circle cx="100" cy="185" r="14"/><circle cx="140" cy="185" r="14"/><circle cx="180" cy="185" r="14"/>
      </g>
      <g class="column"><text x="20" y="225">A</text><text x="60" y="225">B</text><text x="100" y="225">C</text><text x="140" y="225">D</text><text x="180" y="225">E</text></g>
    </g>
    <g id="cap-done">
      <circle cx="20" cy="20" r="14" fill="#263246"/><circle cx="100" cy="20" r="14" fill="#263246"/><circle cx="180" cy="20" r="14" fill="#263246"/>
    </g>
  </defs>

  <rect width="1080" height="620" rx="24" fill="#f7f9fc"/>
  <text x="42" y="48" class="title">Row-2 case: pick the route by offset</text>
  <text x="42" y="76" class="note" style="text-anchor:start">Blue is duplicated in row 1 (the dashed ring marks the copy to trade out); the missing yellow already sits in row 2. The three panels are alternatives.</text>

  <g transform="translate(70 105)">
    <rect width="235" height="430" rx="18" fill="#ffffff" stroke="#dbe2ee"/>
    <text x="117" y="40" class="heading">Yellow just right</text>
    <text x="117" y="66" class="note">duplicate at X1, yellow at (X+1)2</text>
    <g transform="translate(27 110)"><use href="#board"/><use href="#cap-done"/>
      <circle cx="20" cy="185" r="14" fill="#3f7edb"/>
      <circle cx="140" cy="185" r="14" fill="#3f7edb"/>
      <circle cx="140" cy="185" r="17" fill="none" stroke="#dc7a24" stroke-width="3" stroke-dasharray="5 4"/>
      <circle cx="180" cy="145" r="14" fill="#e9c46a"/>
    </g>
    <text x="117" y="382" class="note">Brr carries the pair to B1 and C2;</text>
    <text x="117" y="402" class="note">bll trades yellow in at E1.</text>
  </g>

  <g transform="translate(422 105)">
    <rect width="235" height="430" rx="18" fill="#ffffff" stroke="#dbe2ee"/>
    <text x="117" y="40" class="heading">Yellow just left</text>
    <text x="117" y="66" class="note">duplicate at X1, yellow at (X-1)2</text>
    <g transform="translate(27 110)"><use href="#board"/><use href="#cap-done"/>
      <circle cx="20" cy="185" r="14" fill="#3f7edb"/>
      <circle cx="140" cy="185" r="14" fill="#3f7edb"/>
      <circle cx="140" cy="185" r="17" fill="none" stroke="#dc7a24" stroke-width="3" stroke-dasharray="5 4"/>
      <circle cx="100" cy="145" r="14" fill="#e9c46a"/>
    </g>
    <text x="117" y="382" class="note">Bl carries the pair to E1 and D2;</text>
    <text x="117" y="402" class="note">brr trades yellow in at B1.</text>
  </g>

  <g transform="translate(774 105)">
    <rect width="235" height="430" rx="18" fill="#ffffff" stroke="#dbe2ee"/>
    <text x="117" y="40" class="heading">Any other offset</text>
    <text x="117" y="66" class="note">reduce to the row-3 case</text>
    <g transform="translate(27 110)"><use href="#board"/><use href="#cap-done"/>
      <circle cx="20" cy="185" r="14" fill="#3f7edb"/>
      <circle cx="140" cy="185" r="14" fill="#3f7edb"/>
      <circle cx="140" cy="185" r="17" fill="none" stroke="#dc7a24" stroke-width="3" stroke-dasharray="5 4"/>
      <circle cx="20" cy="145" r="14" fill="#e9c46a"/>
      <path class="move" d="M33 135 C 50 118, 66 110, 82 107"/>
    </g>
    <text x="117" y="382" class="note">Carry the yellow to B2, lift with bl</text>
    <text x="117" y="402" class="note">to C3, then run the row-3 case.</text>
  </g>
</svg>
