<svg xmlns="http://www.w3.org/2000/svg" width="1080" height="560" viewBox="0 0 1080 560" role="img" aria-labelledby="title desc">
  <title id="title">Compact one-algorithm solution for Star Tenbillion</title>
  <desc id="desc">A mirrored six-move word makes a pure three-cycle on positions 11, 13, and 18.</desc>
  <defs>
    <style>
      .title { font: 700 28px system-ui, sans-serif; fill: #172033; }
      .heading { font: 700 20px system-ui, sans-serif; fill: #172033; }
      .sequence { font: 700 23px ui-monospace, monospace; fill: #172033; }
      .math { font: 700 18px ui-monospace, monospace; fill: #31405c; }
      .note { font: 15px system-ui, sans-serif; fill: #58657d; }
      .number { font: 700 20px ui-monospace, monospace; text-anchor: middle; dominant-baseline: central; fill: #172033; }
      .arrow { stroke: #3478d4; stroke-width: 5; fill: none; marker-end: url(#arrow); }
    </style>
    <marker id="arrow" markerWidth="8" markerHeight="8" refX="7" refY="4" orient="auto"><path d="M0 0 L8 4 L0 8 Z" fill="#3478d4"/></marker>
  </defs>

  <rect width="1080" height="560" rx="24" fill="#f7f9fc"/>
  <text x="42" y="48" class="title">Compact solution: a mirrored 1-2-1 pattern</text>

  <rect x="35" y="78" width="1010" height="142" rx="18" fill="#ffffff" stroke="#dbe2ee"/>
  <text x="62" y="113" class="heading">Six face turns · eight fifth-turn clicks</text>
  <g transform="translate(62 137)">
    <g class="sequence" text-anchor="middle">
      <rect x="0" y="0" width="120" height="48" rx="10" fill="#eaf3ff"/><text x="60" y="25">Tl</text>
      <rect x="132" y="0" width="120" height="48" rx="10" fill="#eef9f2"/><text x="192" y="25">bll</text>
      <rect x="264" y="0" width="120" height="48" rx="10" fill="#eaf3ff"/><text x="324" y="25">Tl</text>
      <rect x="430" y="0" width="120" height="48" rx="10" fill="#eef9f2"/><text x="490" y="25">br</text>
      <rect x="562" y="0" width="120" height="48" rx="10" fill="#eaf3ff"/><text x="622" y="25">Trr</text>
      <rect x="694" y="0" width="120" height="48" rx="10" fill="#eef9f2"/><text x="754" y="25">br</text>
    </g>
    <path d="M407 2 L407 46" stroke="#aab5c6" stroke-width="3" stroke-dasharray="5 5"/>
    <text x="192" y="70" class="note" text-anchor="middle">T–b–T · LEFT · 1–2–1</text>
    <text x="622" y="70" class="note" text-anchor="middle">b–T–b · RIGHT · 1–2–1</text>
  </g>

  <rect x="35" y="242" width="500" height="280" rx="18" fill="#ffffff" stroke="#dbe2ee"/>
  <text x="62" y="278" class="heading">Why it sticks</text>
  <rect x="62" y="302" width="446" height="75" rx="13" fill="#f4f6fa"/>
  <text x="82" y="331" class="math">families: T b T  |  b T b</text>
  <text x="82" y="357" class="note">the second half mirrors the first</text>
  <rect x="62" y="428" width="446" height="66" rx="13" fill="#eaf3ff"/>
  <text x="82" y="457" class="math">sizes: 1 2 1  |  1 2 1</text>
  <text x="82" y="482" class="note">left first, then right; nothing else to learn</text>

  <rect x="555" y="242" width="490" height="280" rx="18" fill="#ffffff" stroke="#dbe2ee"/>
  <text x="582" y="278" class="heading">The reusable 3-cycle C</text>
  <g class="arrow">
    <path d="M725 343 Q800 285 875 343"/><path d="M891 378 Q875 455 800 466"/><path d="M765 457 Q690 430 709 378"/>
  </g>
  <g fill="#ffffff" stroke="#3478d4" stroke-width="4">
    <circle cx="710" cy="360" r="34"/><circle cx="890" cy="360" r="34"/><circle cx="800" cy="470" r="34"/>
  </g>
  <g class="number"><text x="710" y="360">11</text><text x="890" y="360">13</text><text x="800" y="470">18</text></g>
  <text x="800" y="310" class="note" text-anchor="middle">Apply once to advance; twice to reverse</text>
</svg>
