<svg xmlns="http://www.w3.org/2000/svg" width="1080" height="830" viewBox="0 0 1080 830" role="img" aria-labelledby="title desc">
  <title id="title">How each one-click move permutes the balls</title>
  <desc id="desc">Four board diagrams tracing every ball through the left-turn clicks Tl, Bl, tl, and bl. Solid and dashed arrows distinguish the two disjoint 5-cycles of each move.</desc>
  <defs>
    <style>
      .title { font: 700 28px system-ui, sans-serif; fill: #172033; }
      .heading { font: 700 19px system-ui, sans-serif; fill: #172033; }
      .note { font: 14px system-ui, sans-serif; fill: #58657d; }
      .column { font: 700 13px system-ui, sans-serif; fill: #58657d; text-anchor: middle; }
      .rowlab { font: 700 12px system-ui, sans-serif; fill: #8795ab; text-anchor: end; }
      .cycle { font: 600 15px ui-monospace, monospace; fill: #465168; text-anchor: middle; }
    </style>
    <marker id="ar-blue" markerWidth="9" markerHeight="9" refX="8" refY="4.5" orient="auto" markerUnits="userSpaceOnUse"><path d="M0 0 L9 4.5 L0 9 Z" fill="#3478d4"/></marker>
    <marker id="ar-orange" markerWidth="9" markerHeight="9" refX="8" refY="4.5" orient="auto" markerUnits="userSpaceOnUse"><path d="M0 0 L9 4.5 L0 9 Z" fill="#dc7a24"/></marker>
    <marker id="ar-green" markerWidth="9" markerHeight="9" refX="8" refY="4.5" orient="auto" markerUnits="userSpaceOnUse"><path d="M0 0 L9 4.5 L0 9 Z" fill="#35965c"/></marker>
    <marker id="ar-purple" markerWidth="9" markerHeight="9" refX="8" refY="4.5" orient="auto" markerUnits="userSpaceOnUse"><path d="M0 0 L9 4.5 L0 9 Z" fill="#7851b8"/></marker>
    <g id="board2">
      <g fill="#f5f7fb" stroke="#a9b4c7" stroke-width="2">
        <circle cx="20" cy="20" r="13"/><circle cx="110" cy="20" r="13"/><circle cx="200" cy="20" r="13"/>
        <circle cx="20" cy="60" r="13"/><circle cx="65" cy="60" r="13"/><circle cx="110" cy="60" r="13"/><circle cx="155" cy="60" r="13"/><circle cx="200" cy="60" r="13"/>
        <circle cx="20" cy="100" r="13"/><circle cx="65" cy="100" r="13"/><circle cx="110" cy="100" r="13"/><circle cx="155" cy="100" r="13"/><circle cx="200" cy="100" r="13"/>
        <circle cx="20" cy="140" r="13"/><circle cx="65" cy="140" r="13"/><circle cx="110" cy="140" r="13"/><circle cx="155" cy="140" r="13"/><circle cx="200" cy="140" r="13"/>
        <circle cx="20" cy="180" r="13"/><circle cx="65" cy="180" r="13"/><circle cx="110" cy="180" r="13"/><circle cx="155" cy="180" r="13"/><circle cx="200" cy="180" r="13"/>
      </g>
      <g class="rowlab">
        <text x="-26" y="24">5</text><text x="-26" y="64">4</text><text x="-26" y="104">3</text><text x="-26" y="144">2</text><text x="-26" y="184">1</text>
      </g>
      <g class="column"><text x="20" y="215">A</text><text x="65" y="215">B</text><text x="110" y="215">C</text><text x="155" y="215">D</text><text x="200" y="215">E</text></g>
    </g>
  </defs>

  <rect width="1080" height="830" rx="24" fill="#f7f9fc"/>
  <text x="42" y="48" class="title">How each one-click move permutes the balls</text>
  <text x="42" y="76" class="note">All four moves are shown as left turns; a right turn reverses every arrow. Solid and dashed arrows are the two disjoint 5-cycles of one move.</text>

  <g transform="translate(40 100)">
    <rect width="460" height="340" rx="18" fill="#ffffff" stroke="#dbe2ee"/>
    <text x="28" y="38" class="heading" fill="#3478d4">Tl &#8212; top disc, core up</text>
    <text x="28" y="62" class="note">Rows 4 and 3 rotate one column; E wraps to A.</text>
    <g transform="translate(120 80)"><use href="#board2"/>
      <g fill="none" stroke="#3478d4" stroke-width="2">
        <circle cx="20" cy="60" r="13"/><circle cx="65" cy="60" r="13"/><circle cx="110" cy="60" r="13"/><circle cx="155" cy="60" r="13"/><circle cx="200" cy="60" r="13"/>
        <circle cx="20" cy="100" r="13"/><circle cx="65" cy="100" r="13"/><circle cx="110" cy="100" r="13"/><circle cx="155" cy="100" r="13"/><circle cx="200" cy="100" r="13"/>
      </g>
      <g fill="none" stroke="#3478d4" stroke-width="2.5" marker-end="url(#ar-blue)">
        <path d="M28 50 Q 42 38 56 50"/><path d="M73 50 Q 87 38 101 50"/><path d="M118 50 Q 132 38 146 50"/><path d="M163 50 Q 177 38 191 50"/>
        <path d="M215 60 L 228 60"/><path d="M-13 60 L 1 60"/>
        <path d="M28 90 Q 42 78 56 90"/><path d="M73 90 Q 87 78 101 90"/><path d="M118 90 Q 132 78 146 90"/><path d="M163 90 Q 177 78 191 90"/>
        <path d="M215 100 L 228 100"/><path d="M-13 100 L 1 100"/>
      </g>
    </g>
    <text x="230" y="322" class="cycle">T = (4 5 6 7 8)(9 10 11 12 13)</text>
  </g>

  <g transform="translate(580 100)">
    <rect width="460" height="340" rx="18" fill="#ffffff" stroke="#dbe2ee"/>
    <text x="28" y="38" class="heading" fill="#dc7a24">Bl &#8212; bottom disc, core up</text>
    <text x="28" y="62" class="note">Rows 2 and 1 rotate one column; E wraps to A.</text>
    <g transform="translate(120 80)"><use href="#board2"/>
      <g fill="none" stroke="#dc7a24" stroke-width="2">
        <circle cx="20" cy="140" r="13"/><circle cx="65" cy="140" r="13"/><circle cx="110" cy="140" r="13"/><circle cx="155" cy="140" r="13"/><circle cx="200" cy="140" r="13"/>
        <circle cx="20" cy="180" r="13"/><circle cx="65" cy="180" r="13"/><circle cx="110" cy="180" r="13"/><circle cx="155" cy="180" r="13"/><circle cx="200" cy="180" r="13"/>
      </g>
      <g fill="none" stroke="#dc7a24" stroke-width="2.5" marker-end="url(#ar-orange)">
        <path d="M28 130 Q 42 118 56 130"/><path d="M73 130 Q 87 118 101 130"/><path d="M118 130 Q 132 118 146 130"/><path d="M163 130 Q 177 118 191 130"/>
        <path d="M215 140 L 228 140"/><path d="M-13 140 L 1 140"/>
        <path d="M28 170 Q 42 158 56 170"/><path d="M73 170 Q 87 158 101 170"/><path d="M118 170 Q 132 158 146 170"/><path d="M163 170 Q 177 158 191 170"/>
        <path d="M215 180 L 228 180"/><path d="M-13 180 L 1 180"/>
      </g>
    </g>
    <text x="230" y="322" class="cycle">B = (14 15 16 17 18)(19 20 21 22 23)</text>
  </g>

  <g transform="translate(40 465)">
    <rect width="460" height="340" rx="18" fill="#ffffff" stroke="#dbe2ee"/>
    <text x="28" y="38" class="heading" fill="#35965c">tl &#8212; top disc, core down</text>
    <text x="28" y="62" class="note">The cap joins in: solid mixes rows 5-4, dashed rows 4-3.</text>
    <g transform="translate(120 80)"><use href="#board2"/>
      <g fill="none" stroke="#35965c" stroke-width="2">
        <circle cx="20" cy="20" r="13"/><circle cx="110" cy="20" r="13"/><circle cx="200" cy="20" r="13"/>
        <circle cx="20" cy="60" r="13"/><circle cx="65" cy="60" r="13"/><circle cx="110" cy="60" r="13"/><circle cx="155" cy="60" r="13"/><circle cx="200" cy="60" r="13"/>
        <circle cx="20" cy="100" r="13"/><circle cx="65" cy="100" r="13"/><circle cx="110" cy="100" r="13"/><circle cx="155" cy="100" r="13"/><circle cx="200" cy="100" r="13"/>
      </g>
      <g fill="none" stroke="#35965c" stroke-width="2.5" marker-end="url(#ar-green)">
        <path d="M29 30 L 55 51"/><path d="M74 51 L 100 30"/>
        <path d="M123 13 Q 155 -2 188 14"/>
        <path d="M200 35 L 200 45"/>
        <path d="M186 53 C 150 40, 68 40, 32 29"/>
      </g>
      <g fill="none" stroke="#35965c" stroke-width="2.5" stroke-dasharray="6 4" marker-end="url(#ar-green)">
        <path d="M29 70 L 55 91"/><path d="M74 91 L 100 70"/>
        <path d="M126 60 L 140 60"/>
        <path d="M164 70 L 190 91"/>
        <path d="M186 93 C 150 80, 68 80, 32 69"/>
      </g>
    </g>
    <text x="230" y="322" class="cycle">t = (1 5 2 3 8)(4 10 6 7 13)</text>
  </g>

  <g transform="translate(580 465)">
    <rect width="460" height="340" rx="18" fill="#ffffff" stroke="#dbe2ee"/>
    <text x="28" y="38" class="heading" fill="#7851b8">bl &#8212; bottom disc, core down</text>
    <text x="28" y="62" class="note">Same shape one level down: solid mixes rows 3-2, dashed rows 2-1.</text>
    <g transform="translate(120 80)"><use href="#board2"/>
      <g fill="none" stroke="#7851b8" stroke-width="2">
        <circle cx="20" cy="100" r="13"/><circle cx="65" cy="100" r="13"/><circle cx="110" cy="100" r="13"/><circle cx="155" cy="100" r="13"/><circle cx="200" cy="100" r="13"/>
        <circle cx="20" cy="140" r="13"/><circle cx="65" cy="140" r="13"/><circle cx="110" cy="140" r="13"/><circle cx="155" cy="140" r="13"/><circle cx="200" cy="140" r="13"/>
        <circle cx="20" cy="180" r="13"/><circle cx="65" cy="180" r="13"/><circle cx="110" cy="180" r="13"/><circle cx="155" cy="180" r="13"/><circle cx="200" cy="180" r="13"/>
      </g>
      <g fill="none" stroke="#7851b8" stroke-width="2.5" marker-end="url(#ar-purple)">
        <path d="M29 110 L 55 131"/><path d="M74 131 L 100 110"/>
        <path d="M126 100 L 140 100"/>
        <path d="M164 110 L 190 131"/>
        <path d="M186 133 C 150 120, 68 120, 32 109"/>
      </g>
      <g fill="none" stroke="#7851b8" stroke-width="2.5" stroke-dasharray="6 4" marker-end="url(#ar-purple)">
        <path d="M29 150 L 55 171"/><path d="M74 171 L 100 150"/>
        <path d="M126 140 L 140 140"/>
        <path d="M164 150 L 190 171"/>
        <path d="M186 173 C 150 160, 68 160, 32 149"/>
      </g>
    </g>
    <text x="230" y="322" class="cycle">b = (9 15 11 12 18)(14 20 16 17 23)</text>
  </g>
</svg>
